<svg id="Layer_1" data-name="Layer 1" xmlns="http://www.w3.org/2000/svg" viewBox="0 0 691.94 87.14"><defs><style>.cls-1,.cls-2{fill:#edeced;}.cls-2{stroke:#edeced;}.cls-2,.cls-3{stroke-miterlimit:10;stroke-width:2px;}.cls-3{fill:#7f3d96;stroke:#7f3f97;}</style></defs><polygon class="cls-1" points="126.02 2.65 126.02 84.91 182.85 84.91 182.85 72.98 139.15 72.98 139.15 2.65 126.02 2.65"/><polygon class="cls-1" points="252.9 2.65 229.4 35.88 205.9 2.65 190.84 2.65 222.69 47.64 222.69 84.91 235.64 84.91 235.64 47.26 267.5 2.65 252.9 2.65"/><polygon class="cls-1" points="352.15 2.65 352.15 62.14 305.6 2.65 294.31 2.65 294.31 84.91 307.07 84.91 307.07 25.05 353.89 84.91 364.82 84.91 364.82 2.65 352.15 2.65"/><rect class="cls-1" x="400.72" y="2.65" width="12.95" height="82.26"/><path class="cls-1" d="M483.8,18.44,498.86,53H468.75ZM477.65,2.1l-36,82.81h13.77l8.82-20.38h39.11l8.9,20.38h13.87l-36-82.81Z"/><polygon class="cls-1" points="535.59 2.65 535.59 14.4 562.76 14.4 562.76 84.91 575.71 84.91 575.71 14.4 602.97 14.4 602.97 2.65 535.59 2.65"/><polygon class="cls-1" points="631.8 2.65 631.8 84.91 691.94 84.91 691.94 72.98 644.75 72.98 644.75 46.9 681.93 46.9 681.93 34.97 644.75 34.97 644.75 14.4 690.47 14.4 690.47 2.65 631.8 2.65"/><rect class="cls-2" x="-3.19" y="15" width="39.86" height="3.49" transform="translate(-6.93 16.74) rotate(-45)"/><rect class="cls-2" x="-7.67" y="25.82" width="70.48" height="3.49" transform="translate(-11.42 27.57) rotate(-45)"/><rect class="cls-2" x="-12.15" y="36.65" width="101.1" height="3.49" transform="translate(-15.9 38.39) rotate(-45)"/><polygon class="cls-3" points="12.16 83.68 14.63 86.14 14.64 86.14 86.15 14.63 83.68 12.16 12.16 83.68"/><polygon class="cls-2" points="33.81 83.68 36.27 86.14 36.28 86.14 86.15 36.28 83.68 33.81 33.81 83.68"/><polygon class="cls-2" points="55.49 83.68 57.95 86.14 57.96 86.14 86.14 57.96 83.68 55.49 55.49 83.68"/><polygon class="cls-2" points="76.99 83.68 79.45 86.14 79.45 86.14 86.15 79.45 83.68 76.98 76.99 83.68"/><rect class="cls-2" x="1.27" y="4.25" width="9.47" height="3.49" transform="translate(-2.48 6) rotate(-45)"/></svg>