<svg id="Layer_1" data-name="Layer 1" xmlns="http://www.w3.org/2000/svg" viewBox="0 0 295.29 380"><defs><style>.cls-1{fill:#ececec;}.cls-2{fill:#803d96;}</style></defs><polygon class="cls-1" points="0 337.07 0 380 29.65 380 29.65 373.77 6.85 373.77 6.85 337.07 0 337.07"/><polygon class="cls-1" points="66.21 337.07 53.95 354.42 41.68 337.07 33.82 337.07 50.44 360.55 50.44 380 57.2 380 57.2 360.36 73.82 337.07 66.21 337.07"/><polygon class="cls-1" points="117.99 337.07 117.99 368.12 93.71 337.07 87.81 337.07 87.81 380 94.47 380 94.47 348.76 118.9 380 124.61 380 124.61 337.07 117.99 337.07"/><rect class="cls-1" x="143.33" y="337.07" width="6.75" height="42.93"/><path class="cls-1" d="M186.69,345.31l7.86,18H178.83Zm-3.21-8.52L164.7,380h7.19l4.6-10.64h20.4L201.54,380h7.23L190,336.79Z"/><polygon class="cls-1" points="213.71 337.07 213.71 343.21 227.89 343.21 227.89 380 234.64 380 234.64 343.21 248.87 343.21 248.87 337.07 213.71 337.07"/><polygon class="cls-1" points="263.91 337.07 263.91 380 295.29 380 295.29 373.77 270.67 373.77 270.67 360.17 290.07 360.17 290.07 353.94 270.67 353.94 270.67 343.21 294.53 343.21 294.53 337.07 263.91 337.07"/><rect class="cls-1" x="-16.36" y="47.43" width="138.79" height="11.22" transform="translate(-21.97 53.04) rotate(-45)"/><rect class="cls-1" x="-31.97" y="85.12" width="245.41" height="11.22" transform="translate(-37.58 90.73) rotate(-45)"/><polygon class="cls-1" points="0 248.92 7.94 256.85 256.85 7.93 248.92 0 0 248.92"/><rect class="cls-2" x="-10.17" y="160.29" width="352.15" height="11.22" transform="translate(-68.72 165.85) rotate(-44.99)"/><rect class="cls-1" x="80.83" y="197.98" width="245.54" height="11.22" transform="translate(-84.33 203.6) rotate(-45)"/><rect class="cls-1" x="171.94" y="235.73" width="138.79" height="11.22" transform="translate(-99.97 241.34) rotate(-45)"/><rect class="cls-1" x="262.31" y="273.16" width="32.92" height="11.22" transform="translate(-115.47 278.77) rotate(-45)"/><rect class="cls-1" x="-0.86" y="10.02" width="32.99" height="11.22" transform="translate(-6.47 15.63) rotate(-45)"/></svg>